<mxfile host="app.diagrams.net" modified="2021-09-22T22:15:42.822Z" agent="5.0 (Windows NT 10.0; Win64; x64) AppleWebKit/537.36 (KHTML, like Gecko) Chrome/93.0.4577.82 Safari/537.36" etag="Sh3AS7Nia1L96PlwC39u" version="14.4.9" type="github">
  <diagram id="rs_gm9d7M8JPY6wh1Piz" name="Page-1">
    <mxGraphModel dx="982" dy="534" grid="1" gridSize="10" guides="1" tooltips="1" connect="1" arrows="1" fold="1" page="1" pageScale="1" pageWidth="827" pageHeight="1169" math="0" shadow="0">
      <root>
        <mxCell id="0" />
        <mxCell id="1" parent="0" />
        <mxCell id="WuQgfKXit7fRZl0_ulul-70" style="edgeStyle=orthogonalEdgeStyle;rounded=0;orthogonalLoop=1;jettySize=auto;html=1;entryX=1;entryY=0.5;entryDx=0;entryDy=0;" edge="1" parent="1" source="WuQgfKXit7fRZl0_ulul-1" target="WuQgfKXit7fRZl0_ulul-42">
          <mxGeometry relative="1" as="geometry" />
        </mxCell>
        <mxCell id="WuQgfKXit7fRZl0_ulul-71" style="edgeStyle=orthogonalEdgeStyle;rounded=0;orthogonalLoop=1;jettySize=auto;html=1;entryX=1;entryY=0.5;entryDx=0;entryDy=0;" edge="1" parent="1" source="WuQgfKXit7fRZl0_ulul-1" target="WuQgfKXit7fRZl0_ulul-41">
          <mxGeometry relative="1" as="geometry" />
        </mxCell>
        <mxCell id="WuQgfKXit7fRZl0_ulul-1" value="Hey, you. You&#39;re finally awake." style="rounded=0;whiteSpace=wrap;html=1;" vertex="1" parent="1">
          <mxGeometry x="440" width="120" height="60" as="geometry" />
        </mxCell>
        <mxCell id="WuQgfKXit7fRZl0_ulul-6" value="Hack the server." style="rounded=0;whiteSpace=wrap;html=1;" vertex="1" parent="1">
          <mxGeometry x="440" y="120" width="120" height="60" as="geometry" />
        </mxCell>
        <mxCell id="WuQgfKXit7fRZl0_ulul-8" value="Main missions/categories" style="rounded=0;whiteSpace=wrap;html=1;" vertex="1" parent="1">
          <mxGeometry width="120" height="60" as="geometry" />
        </mxCell>
        <mxCell id="WuQgfKXit7fRZl0_ulul-9" value="Sub-quests" style="rounded=1;whiteSpace=wrap;html=1;" vertex="1" parent="1">
          <mxGeometry x="160" width="120" height="60" as="geometry" />
        </mxCell>
        <mxCell id="WuQgfKXit7fRZl0_ulul-10" value="" style="ellipse;whiteSpace=wrap;html=1;" vertex="1" parent="1">
          <mxGeometry y="80" width="120" height="80" as="geometry" />
        </mxCell>
        <mxCell id="WuQgfKXit7fRZl0_ulul-12" value="Requires &quot;Hey, you. You&#39;re finally awake.&quot;" style="text;html=1;strokeColor=none;fillColor=none;align=center;verticalAlign=middle;whiteSpace=wrap;rounded=0;" vertex="1" parent="1">
          <mxGeometry x="560" y="15" width="120" height="30" as="geometry" />
        </mxCell>
        <mxCell id="WuQgfKXit7fRZl0_ulul-13" value="Construct the bomb." style="rounded=0;whiteSpace=wrap;html=1;" vertex="1" parent="1">
          <mxGeometry x="440" y="360" width="120" height="60" as="geometry" />
        </mxCell>
        <mxCell id="WuQgfKXit7fRZl0_ulul-14" value="Side quests" style="ellipse;whiteSpace=wrap;html=1;aspect=fixed;" vertex="1" parent="1">
          <mxGeometry x="160" y="80" width="80" height="80" as="geometry" />
        </mxCell>
        <mxCell id="WuQgfKXit7fRZl0_ulul-15" value="BOOM!" style="rounded=0;whiteSpace=wrap;html=1;" vertex="1" parent="1">
          <mxGeometry x="440" y="480" width="120" height="60" as="geometry" />
        </mxCell>
        <mxCell id="WuQgfKXit7fRZl0_ulul-16" value="Requires &quot;Shoot your way out.&quot;" style="text;html=1;strokeColor=none;fillColor=none;align=center;verticalAlign=middle;whiteSpace=wrap;rounded=0;" vertex="1" parent="1">
          <mxGeometry x="560" y="255" width="120" height="30" as="geometry" />
        </mxCell>
        <mxCell id="WuQgfKXit7fRZl0_ulul-17" value="Requires &quot;Construct the bomb.&quot;" style="text;html=1;strokeColor=none;fillColor=none;align=center;verticalAlign=middle;whiteSpace=wrap;rounded=0;" vertex="1" parent="1">
          <mxGeometry x="510" y="440" width="120" height="30" as="geometry" />
        </mxCell>
        <mxCell id="WuQgfKXit7fRZl0_ulul-72" style="edgeStyle=orthogonalEdgeStyle;rounded=0;orthogonalLoop=1;jettySize=auto;html=1;entryX=1;entryY=0.5;entryDx=0;entryDy=0;" edge="1" parent="1" source="WuQgfKXit7fRZl0_ulul-18" target="WuQgfKXit7fRZl0_ulul-47">
          <mxGeometry relative="1" as="geometry" />
        </mxCell>
        <mxCell id="WuQgfKXit7fRZl0_ulul-73" style="edgeStyle=orthogonalEdgeStyle;rounded=0;orthogonalLoop=1;jettySize=auto;html=1;entryX=1;entryY=0.5;entryDx=0;entryDy=0;" edge="1" parent="1" source="WuQgfKXit7fRZl0_ulul-18" target="WuQgfKXit7fRZl0_ulul-48">
          <mxGeometry relative="1" as="geometry" />
        </mxCell>
        <mxCell id="WuQgfKXit7fRZl0_ulul-18" value="Shoot your way out." style="rounded=0;whiteSpace=wrap;html=1;" vertex="1" parent="1">
          <mxGeometry x="440" y="240" width="120" height="60" as="geometry" />
        </mxCell>
        <mxCell id="WuQgfKXit7fRZl0_ulul-19" value="Requires &quot;Hack the server.&quot;" style="text;html=1;strokeColor=none;fillColor=none;align=center;verticalAlign=middle;whiteSpace=wrap;rounded=0;" vertex="1" parent="1">
          <mxGeometry x="500" y="200" width="120" height="30" as="geometry" />
        </mxCell>
        <mxCell id="WuQgfKXit7fRZl0_ulul-60" style="edgeStyle=orthogonalEdgeStyle;rounded=0;orthogonalLoop=1;jettySize=auto;html=1;entryX=1;entryY=0.5;entryDx=0;entryDy=0;" edge="1" parent="1" source="WuQgfKXit7fRZl0_ulul-24" target="WuQgfKXit7fRZl0_ulul-6">
          <mxGeometry relative="1" as="geometry" />
        </mxCell>
        <mxCell id="WuQgfKXit7fRZl0_ulul-24" value="Password" style="rounded=1;whiteSpace=wrap;html=1;" vertex="1" parent="1">
          <mxGeometry x="646" y="150" width="120" height="60" as="geometry" />
        </mxCell>
        <mxCell id="WuQgfKXit7fRZl0_ulul-59" style="edgeStyle=orthogonalEdgeStyle;rounded=0;orthogonalLoop=1;jettySize=auto;html=1;entryX=1;entryY=0.5;entryDx=0;entryDy=0;" edge="1" parent="1" source="WuQgfKXit7fRZl0_ulul-26" target="WuQgfKXit7fRZl0_ulul-6">
          <mxGeometry relative="1" as="geometry" />
        </mxCell>
        <mxCell id="WuQgfKXit7fRZl0_ulul-26" value="Username" style="rounded=1;whiteSpace=wrap;html=1;" vertex="1" parent="1">
          <mxGeometry x="646" y="90" width="120" height="60" as="geometry" />
        </mxCell>
        <mxCell id="WuQgfKXit7fRZl0_ulul-62" style="edgeStyle=orthogonalEdgeStyle;rounded=0;orthogonalLoop=1;jettySize=auto;html=1;entryX=1;entryY=0.5;entryDx=0;entryDy=0;" edge="1" parent="1" source="WuQgfKXit7fRZl0_ulul-41" target="WuQgfKXit7fRZl0_ulul-24">
          <mxGeometry relative="1" as="geometry" />
        </mxCell>
        <mxCell id="WuQgfKXit7fRZl0_ulul-41" value="Security cameras" style="rounded=1;whiteSpace=wrap;html=1;" vertex="1" parent="1">
          <mxGeometry x="806" y="150" width="120" height="60" as="geometry" />
        </mxCell>
        <mxCell id="WuQgfKXit7fRZl0_ulul-61" style="edgeStyle=orthogonalEdgeStyle;rounded=0;orthogonalLoop=1;jettySize=auto;html=1;entryX=1;entryY=0.5;entryDx=0;entryDy=0;" edge="1" parent="1" source="WuQgfKXit7fRZl0_ulul-42" target="WuQgfKXit7fRZl0_ulul-24">
          <mxGeometry relative="1" as="geometry" />
        </mxCell>
        <mxCell id="WuQgfKXit7fRZl0_ulul-42" value="USB" style="rounded=1;whiteSpace=wrap;html=1;" vertex="1" parent="1">
          <mxGeometry x="806" y="90" width="120" height="60" as="geometry" />
        </mxCell>
        <mxCell id="WuQgfKXit7fRZl0_ulul-63" style="edgeStyle=orthogonalEdgeStyle;rounded=0;orthogonalLoop=1;jettySize=auto;html=1;entryX=1;entryY=0.5;entryDx=0;entryDy=0;" edge="1" parent="1" source="WuQgfKXit7fRZl0_ulul-47" target="WuQgfKXit7fRZl0_ulul-13">
          <mxGeometry relative="1" as="geometry" />
        </mxCell>
        <mxCell id="WuQgfKXit7fRZl0_ulul-47" value="Racing" style="rounded=1;whiteSpace=wrap;html=1;" vertex="1" parent="1">
          <mxGeometry x="646" y="330" width="120" height="60" as="geometry" />
        </mxCell>
        <mxCell id="WuQgfKXit7fRZl0_ulul-64" style="edgeStyle=orthogonalEdgeStyle;rounded=0;orthogonalLoop=1;jettySize=auto;html=1;entryX=1;entryY=0.5;entryDx=0;entryDy=0;" edge="1" parent="1" source="WuQgfKXit7fRZl0_ulul-48" target="WuQgfKXit7fRZl0_ulul-13">
          <mxGeometry relative="1" as="geometry" />
        </mxCell>
        <mxCell id="WuQgfKXit7fRZl0_ulul-48" value="Liar&#39;s dice" style="rounded=1;whiteSpace=wrap;html=1;" vertex="1" parent="1">
          <mxGeometry x="646" y="390" width="120" height="60" as="geometry" />
        </mxCell>
        <mxCell id="WuQgfKXit7fRZl0_ulul-65" value="" style="shape=flexArrow;endArrow=classic;html=1;exitX=0.5;exitY=1;exitDx=0;exitDy=0;entryX=0.5;entryY=0;entryDx=0;entryDy=0;" edge="1" parent="1" source="WuQgfKXit7fRZl0_ulul-1" target="WuQgfKXit7fRZl0_ulul-6">
          <mxGeometry width="50" height="50" relative="1" as="geometry">
            <mxPoint x="530" y="130" as="sourcePoint" />
            <mxPoint x="580" y="80" as="targetPoint" />
          </mxGeometry>
        </mxCell>
        <mxCell id="WuQgfKXit7fRZl0_ulul-67" value="" style="shape=flexArrow;endArrow=classic;html=1;exitX=0.5;exitY=1;exitDx=0;exitDy=0;" edge="1" parent="1" source="WuQgfKXit7fRZl0_ulul-6" target="WuQgfKXit7fRZl0_ulul-18">
          <mxGeometry width="50" height="50" relative="1" as="geometry">
            <mxPoint x="530" y="250" as="sourcePoint" />
            <mxPoint x="580" y="200" as="targetPoint" />
          </mxGeometry>
        </mxCell>
        <mxCell id="WuQgfKXit7fRZl0_ulul-68" value="" style="shape=flexArrow;endArrow=classic;html=1;exitX=0.5;exitY=1;exitDx=0;exitDy=0;entryX=0.5;entryY=0;entryDx=0;entryDy=0;" edge="1" parent="1" source="WuQgfKXit7fRZl0_ulul-18" target="WuQgfKXit7fRZl0_ulul-13">
          <mxGeometry width="50" height="50" relative="1" as="geometry">
            <mxPoint x="530" y="320" as="sourcePoint" />
            <mxPoint x="580" y="270" as="targetPoint" />
          </mxGeometry>
        </mxCell>
        <mxCell id="WuQgfKXit7fRZl0_ulul-69" value="" style="shape=flexArrow;endArrow=classic;html=1;exitX=0.5;exitY=1;exitDx=0;exitDy=0;entryX=0.5;entryY=0;entryDx=0;entryDy=0;" edge="1" parent="1" source="WuQgfKXit7fRZl0_ulul-13" target="WuQgfKXit7fRZl0_ulul-15">
          <mxGeometry width="50" height="50" relative="1" as="geometry">
            <mxPoint x="530" y="470" as="sourcePoint" />
            <mxPoint x="580" y="420" as="targetPoint" />
          </mxGeometry>
        </mxCell>
        <mxCell id="WuQgfKXit7fRZl0_ulul-76" value="" style="shape=flexArrow;endArrow=classic;html=1;" edge="1" parent="1">
          <mxGeometry width="50" height="50" relative="1" as="geometry">
            <mxPoint x="20" y="200" as="sourcePoint" />
            <mxPoint x="20" y="280" as="targetPoint" />
            <Array as="points">
              <mxPoint x="20" y="210" />
            </Array>
          </mxGeometry>
        </mxCell>
        <mxCell id="WuQgfKXit7fRZl0_ulul-77" value="Main story progression" style="text;html=1;strokeColor=none;fillColor=none;align=center;verticalAlign=middle;whiteSpace=wrap;rounded=0;" vertex="1" parent="1">
          <mxGeometry x="40" y="200" width="80" height="40" as="geometry" />
        </mxCell>
        <mxCell id="WuQgfKXit7fRZl0_ulul-78" value="" style="endArrow=classic;html=1;" edge="1" parent="1">
          <mxGeometry width="50" height="50" relative="1" as="geometry">
            <mxPoint x="180" y="200" as="sourcePoint" />
            <mxPoint x="180" y="280" as="targetPoint" />
          </mxGeometry>
        </mxCell>
        <mxCell id="WuQgfKXit7fRZl0_ulul-79" value="Real progress through missions" style="text;html=1;strokeColor=none;fillColor=none;align=center;verticalAlign=middle;whiteSpace=wrap;rounded=0;" vertex="1" parent="1">
          <mxGeometry x="200" y="200" width="80" height="40" as="geometry" />
        </mxCell>
      </root>
    </mxGraphModel>
  </diagram>
</mxfile>
